<?xml version="1.0" encoding="utf-8"?>
<!-- Generator: Adobe Illustrator 22.0.0, SVG Export Plug-In . SVG Version: 6.00 Build 0)  -->
<svg version="1.1" id="Layer_1" xmlns="http://www.w3.org/2000/svg" xmlns:xlink="http://www.w3.org/1999/xlink" x="0px" y="0px"
	 viewBox="0 0 23.7 38" style="enable-background:new 0 0 23.7 38;" xml:space="preserve">
<style type="text/css">
	.st0{fill:#649538;}
</style>
<g>
	<g>
		<path class="st0" d="M20.2,0H3.6C1.6,0,0,1.6,0,3.6v30.9c0,2,1.6,3.6,3.6,3.6h16.6c2,0,3.6-1.6,3.6-3.6V3.6
			C23.7,1.6,22.1,0,20.2,0L20.2,0z M7.1,1.8h9.5V3H7.1V1.8z M11.9,35.6c-1.3,0-2.4-1.1-2.4-2.4c0-1.3,1.1-2.4,2.4-2.4
			c1.3,0,2.4,1.1,2.4,2.4C14.2,34.5,13.2,35.6,11.9,35.6L11.9,35.6z M21.4,28.5h-19V4.7h19V28.5z"/>
	</g>
</g>
</svg>
